# xmcd
#
# Track frame offsets:
#	150
#	13375
#	26742
#	40330
#	60737
#	77525
#	98805
#	117625
#	127505
#	138125
#	159775
#	174280
#	186970
#	221950
#	238355
#	255987
#	274930
#	293662
#
# Disc length: 4199 seconds
#
# Revision: 10
# Processed by: cddbd v1.5.1PL2 Copyright (c) Steve Scherf et al.
# Submitted via: audiograbber 1.83.01
#
DISCID=fb106512
DTITLE=Dr. John - The Very Best Of Dr. John
DYEAR=1995
DGENRE=Pop
TTITLE0=Right Place Wrong Time
TTITLE1=Such A Night
TTITLE2=Mama Roux
TTITLE3=Junko Partner
TTITLE4=Wash, Mama, Wash
TTITLE5=Loop Garoo
TTITLE6=Iko Iko
TTITLE7=Tipitina
TTITLE8=Jump Sturdy
TTITLE9=Qualified
TTITLE10=What Comes Around (Goes Around)
TTITLE11=Mos' Scocious
TTITLE12=I Walk On Guilded Splinters
TTITLE13=Honey Dripper
TTITLE14=Accentuate The Positive
TTITLE15=Goin' Back To New Orleans
TTITLE16=Makin' Whoopee (duet with Rickie Lee Jones)
TTITLE17=Litanie Des Saints
EXTD=
EXTT0=
EXTT1=
EXTT2=
EXTT3=
EXTT4=
EXTT5=
EXTT6=
EXTT7=
EXTT8=
EXTT9=
EXTT10=
EXTT11=
EXTT12=
EXTT13=
EXTT14=
EXTT15=
EXTT16=
EXTT17=
PLAYORDER=
